<svg width="229" height="174" viewBox="0 0 229 174" fill="none" xmlns="http://www.w3.org/2000/svg">
<path d="M135.237 114.841C162.571 103.915 175.392 74.0386 163.874 48.1099C152.356 22.1812 120.86 10.0191 93.5268 20.9451C66.1933 31.8712 53.3724 61.7479 64.8904 87.6766C76.4084 113.605 107.904 125.767 135.237 114.841Z" fill="#FFC727"/>
<path d="M83.9688 77.0229C87.1398 79.6497 90.0205 82.5094 92.9012 85.3268C95.7819 88.1442 98.5286 91.1099 101.231 94.0967H96.4742C103.531 83.9711 111.146 74.2267 119.14 64.7789C123.115 60.0338 127.313 55.437 131.556 50.8825C135.799 46.3281 140.265 41.9431 144.955 37.77C142.03 43.2565 138.747 48.4888 135.353 53.6576C131.958 58.8263 128.385 63.8468 124.678 68.7825C117.264 78.6752 109.493 88.2925 101.141 97.5072L98.4616 100.473L96.4072 97.486C94.1741 94.2238 91.9409 90.8768 89.8195 87.4875C87.698 84.0981 85.6436 80.6453 83.9688 77.0229Z" fill="white"/>
<path d="M228.026 169.36C228.133 170.099 228.008 170.852 227.664 171.524C227.32 172.195 226.774 172.755 226.095 173.132C225.416 173.508 224.634 173.686 223.849 173.641C223.063 173.596 222.31 173.331 221.683 172.879C221.057 172.427 220.586 171.809 220.33 171.104C220.074 170.398 220.044 169.636 220.245 168.914C220.446 168.192 220.868 167.543 221.458 167.05C222.048 166.556 222.779 166.239 223.559 166.14C224.076 166.071 224.601 166.1 225.106 166.225C225.61 166.35 226.084 166.569 226.499 166.868C226.914 167.167 227.263 167.541 227.525 167.969C227.787 168.397 227.957 168.869 228.026 169.36Z" fill="#FFC727"/>
<path d="M154.312 118.56C154.368 118.814 154.368 119.077 154.312 119.331C154.256 119.585 154.145 119.825 153.986 120.037C153.828 120.248 153.625 120.426 153.391 120.56C153.156 120.694 152.895 120.78 152.624 120.814C152.353 120.848 152.077 120.828 151.814 120.756C151.551 120.683 151.307 120.561 151.097 120.395C150.886 120.229 150.714 120.024 150.591 119.792C150.468 119.56 150.397 119.307 150.382 119.048C150.354 118.573 150.517 118.106 150.837 117.74C151.158 117.374 151.612 117.137 152.109 117.075C152.606 117.013 153.109 117.132 153.518 117.408C153.926 117.683 154.21 118.095 154.312 118.56Z" fill="white"/>
<path d="M107.059 1.62942C107.108 1.99372 107.042 2.36357 106.87 2.69254C106.698 3.0215 106.427 3.29497 106.092 3.47857C105.757 3.66217 105.372 3.74773 104.986 3.72455C104.599 3.70138 104.229 3.57051 103.921 3.34831C103.612 3.12611 103.38 2.82248 103.253 2.47558C103.126 2.12868 103.11 1.75395 103.207 1.39838C103.304 1.04281 103.509 0.722276 103.797 0.476967C104.085 0.231659 104.443 0.0725247 104.826 0.0195281C105.084 -0.0162228 105.348 -0.00280018 105.601 0.0590918C105.854 0.120984 106.091 0.230107 106.299 0.379998C106.507 0.529888 106.681 0.717546 106.812 0.932079C106.942 1.14661 107.026 1.38367 107.059 1.62942Z" fill="white"/>
<path d="M220.499 81.5525C220.553 81.9222 220.49 82.2988 220.318 82.6345C220.147 82.9702 219.874 83.2501 219.534 83.4385C219.194 83.6269 218.803 83.7155 218.411 83.693C218.018 83.6705 217.641 83.5379 217.328 83.3121C217.015 83.0863 216.779 82.7774 216.651 82.4245C216.523 82.0715 216.508 81.6906 216.609 81.3297C216.709 80.9689 216.92 80.6444 217.215 80.3975C217.51 80.1505 217.876 79.9922 218.266 79.9425C218.787 79.8762 219.314 80.0084 219.733 80.3101C220.152 80.6119 220.427 81.0586 220.499 81.5525Z" fill="white"/>
<path d="M17.2656 167.813C17.293 168.288 17.1303 168.755 16.8101 169.121C16.4898 169.486 16.0357 169.724 15.5387 169.786C15.0417 169.847 14.5384 169.728 14.1298 169.453C13.7213 169.177 13.4375 168.766 13.3354 168.3C13.2714 167.807 13.413 167.309 13.73 166.914C14.047 166.518 14.5144 166.256 15.0325 166.182C15.2922 166.149 15.5561 166.166 15.809 166.23C16.062 166.294 16.2991 166.405 16.5066 166.557C16.7141 166.709 16.888 166.898 17.0183 167.113C17.1485 167.329 17.2326 167.567 17.2656 167.813Z" fill="#FFC727"/>
<path d="M8.62369 91.8086C8.72196 92.5424 8.58926 93.2873 8.24227 93.9497C7.89529 94.6121 7.34952 95.1623 6.67365 95.5312C5.99779 95.9 5.22203 96.071 4.44397 96.0226C3.66591 95.9742 2.92031 95.7086 2.30101 95.2592C1.68171 94.8098 1.21637 94.1966 0.96355 93.4969C0.710725 92.7972 0.681706 92.0422 0.880153 91.3269C1.0786 90.6116 1.49565 89.968 2.07881 89.477C2.66197 88.986 3.38519 88.6696 4.15747 88.5676C4.67552 88.4991 5.20273 88.5289 5.70856 88.6552C6.21439 88.7815 6.68875 89.0018 7.10418 89.3032C7.51961 89.6047 7.86784 89.9813 8.12867 90.4114C8.3895 90.8415 8.55776 91.3164 8.62369 91.8086Z" fill="#FFC727"/>
<path d="M50.1797 28.1496L55.3382 30.9034C55.1181 29.4193 55.3234 27.9064 55.9325 26.5236C56.5415 25.1407 57.5318 23.9389 58.7995 23.0444C63.2657 19.1467 68.6698 21.2862 71.2602 16.1598L65.8338 12.834C65.2287 14.2484 64.321 15.5285 63.1679 16.5932C62.0147 17.6579 60.6413 18.4841 59.1344 19.0196C55.2935 20.0999 51.1846 21.6463 50.1797 28.1496Z" fill="#FFC727"/>
<path d="M82.606 130.234L83.41 124.663C82.0442 125.401 80.4941 125.777 78.9223 125.751C77.3506 125.725 75.8152 125.298 74.4775 124.514C68.9841 121.909 69.1404 116.444 63.1333 116.041L61.8828 122.078C63.5026 122.094 65.1009 122.432 66.5742 123.07C68.0476 123.709 69.3631 124.634 70.4356 125.785C72.8027 128.666 75.9291 131.801 82.606 130.234Z" fill="#FFC727"/>
<path d="M34.3489 60.3066L27.5156 62.1496C27.5156 62.1496 29.2128 70.623 36.2471 69.246C36.2471 69.246 31.9148 66.7252 34.3489 60.3066Z" fill="white"/>
<path d="M42.8561 75.4333L45.8485 69.4384C45.8485 69.4384 42.1862 65.35 36.2461 69.2477C36.2461 69.2477 43.0124 69.7562 42.8561 75.4333Z" fill="white"/>
<path d="M175.527 59.7783C175.423 59.0392 175.553 58.2875 175.9 57.6183C176.247 56.9491 176.795 56.3926 177.475 56.0189C178.155 55.6452 178.937 55.4712 179.722 55.519C180.506 55.5667 181.258 55.834 181.882 56.2871C182.507 56.7402 182.975 57.3586 183.229 58.0644C183.483 58.7701 183.51 59.5313 183.308 60.2519C183.106 60.9724 182.683 61.62 182.093 62.1126C181.503 62.6052 180.772 62.9207 179.993 63.0194C179.475 63.0849 178.949 63.0531 178.445 62.9257C177.94 62.7982 177.467 62.5777 177.052 62.2767C176.637 61.9757 176.289 61.6002 176.027 61.1715C175.766 60.7428 175.596 60.2694 175.527 59.7783Z" fill="#FFC727"/>
<path d="M196.226 104.667L195.422 110.238C196.787 109.498 198.337 109.12 199.91 109.147C201.482 109.173 203.017 109.601 204.354 110.386C209.87 112.992 209.714 118.457 215.698 118.86L216.971 112.823C215.352 112.807 213.753 112.469 212.28 111.831C210.807 111.192 209.491 110.267 208.419 109.115C205.984 106.235 202.903 103.205 196.226 104.667Z" fill="white"/>
<path d="M188.23 30.2703L194.483 33.4901C194.483 33.4901 199.53 26.2666 193.456 22.623C193.389 22.623 194.706 27.3046 188.23 30.2703Z" fill="#FFC727"/>
<path d="M193.39 13.8105L186.691 16.1407C186.691 16.1407 186.311 21.4578 193.39 22.6228C193.39 22.6228 188.924 17.7718 193.39 13.8105Z" fill="#FFC727"/>
</svg>
