<svg width="25" height="25" viewBox="0 0 25 25" fill="none" xmlns="http://www.w3.org/2000/svg">
<path d="M21.7891 8.46118C21.7891 5.93118 19.7891 3.86119 17.2891 3.72119V3.52124C17.2891 2.97124 16.8391 2.52124 16.2891 2.52124C15.7391 2.52124 15.2891 2.97124 15.2891 3.52124V3.69116H9.28906V3.52124C9.28906 2.97124 8.83906 2.52124 8.28906 2.52124C7.73906 2.52124 7.28906 2.97124 7.28906 3.52124V3.72119C4.78906 3.86119 2.78906 5.93118 2.78906 8.46118V10.3513C2.78906 10.3813 2.79905 10.4112 2.80905 10.4412C2.79905 10.4612 2.78906 10.4912 2.78906 10.5212V17.5212C2.78906 20.0012 4.80906 22.0212 7.28906 22.0212H17.2891C19.7691 22.0212 21.7891 20.0012 21.7891 17.5212V10.5212C21.7891 10.4912 21.7791 10.4612 21.7691 10.4412C21.7791 10.4112 21.7891 10.3813 21.7891 10.3513V8.46118ZM8.28906 18.5212C7.73906 18.5212 7.28906 18.0712 7.28906 17.5212C7.28906 16.9712 7.73906 16.5212 8.28906 16.5212C8.83906 16.5212 9.28906 16.9712 9.28906 17.5212C9.28906 18.0712 8.83906 18.5212 8.28906 18.5212ZM8.28906 14.5212C7.73906 14.5212 7.28906 14.0712 7.28906 13.5212C7.28906 12.9712 7.73906 12.5212 8.28906 12.5212C8.83906 12.5212 9.28906 12.9712 9.28906 13.5212C9.28906 14.0712 8.83906 14.5212 8.28906 14.5212ZM12.2891 18.5212C11.7391 18.5212 11.2891 18.0712 11.2891 17.5212C11.2891 16.9712 11.7391 16.5212 12.2891 16.5212C12.8391 16.5212 13.2891 16.9712 13.2891 17.5212C13.2891 18.0712 12.8391 18.5212 12.2891 18.5212ZM12.2891 14.5212C11.7391 14.5212 11.2891 14.0712 11.2891 13.5212C11.2891 12.9712 11.7391 12.5212 12.2891 12.5212C12.8391 12.5212 13.2891 12.9712 13.2891 13.5212C13.2891 14.0712 12.8391 14.5212 12.2891 14.5212ZM16.2891 18.5212C15.7391 18.5212 15.2891 18.0712 15.2891 17.5212C15.2891 16.9712 15.7391 16.5212 16.2891 16.5212C16.8391 16.5212 17.2891 16.9712 17.2891 17.5212C17.2891 18.0712 16.8391 18.5212 16.2891 18.5212ZM16.2891 14.5212C15.7391 14.5212 15.2891 14.0712 15.2891 13.5212C15.2891 12.9712 15.7391 12.5212 16.2891 12.5212C16.8391 12.5212 17.2891 12.9712 17.2891 13.5212C17.2891 14.0712 16.8391 14.5212 16.2891 14.5212ZM19.7891 10.0212H4.78906V8.46118C4.78906 7.01118 5.90907 5.83118 7.32907 5.71118C7.41907 6.17118 7.80906 6.52124 8.28906 6.52124C8.77906 6.52124 9.16906 6.16116 9.25906 5.69116H15.3191C15.4091 6.16116 15.7991 6.52124 16.2891 6.52124C16.7691 6.52124 17.1591 6.17118 17.2491 5.71118C18.6691 5.83118 19.7891 7.02118 19.7891 8.46118V10.0212Z" fill="#D2D2D2"/>
</svg>
