<svg width="25" height="25" viewBox="0 0 25 25" fill="none" xmlns="http://www.w3.org/2000/svg">
<path d="M21.7891 8.46143C21.7891 5.93143 19.7891 3.86144 17.2891 3.72144V3.52148C17.2891 2.97148 16.8391 2.52148 16.2891 2.52148C15.7391 2.52148 15.2891 2.97148 15.2891 3.52148V3.69141H9.28906V3.52148C9.28906 2.97148 8.83906 2.52148 8.28906 2.52148C7.73906 2.52148 7.28906 2.97148 7.28906 3.52148V3.72144C4.78906 3.86144 2.78906 5.93143 2.78906 8.46143V10.3516C2.78906 10.3816 2.79905 10.4114 2.80905 10.4414C2.79905 10.4614 2.78906 10.4915 2.78906 10.5215V17.5215C2.78906 20.0015 4.80906 22.0215 7.28906 22.0215H17.2891C19.7691 22.0215 21.7891 20.0015 21.7891 17.5215V10.5215C21.7891 10.4915 21.7791 10.4614 21.7691 10.4414C21.7791 10.4114 21.7891 10.3816 21.7891 10.3516V8.46143ZM8.28906 18.5215C7.73906 18.5215 7.28906 18.0715 7.28906 17.5215C7.28906 16.9715 7.73906 16.5215 8.28906 16.5215C8.83906 16.5215 9.28906 16.9715 9.28906 17.5215C9.28906 18.0715 8.83906 18.5215 8.28906 18.5215ZM8.28906 14.5215C7.73906 14.5215 7.28906 14.0715 7.28906 13.5215C7.28906 12.9715 7.73906 12.5215 8.28906 12.5215C8.83906 12.5215 9.28906 12.9715 9.28906 13.5215C9.28906 14.0715 8.83906 14.5215 8.28906 14.5215ZM12.2891 18.5215C11.7391 18.5215 11.2891 18.0715 11.2891 17.5215C11.2891 16.9715 11.7391 16.5215 12.2891 16.5215C12.8391 16.5215 13.2891 16.9715 13.2891 17.5215C13.2891 18.0715 12.8391 18.5215 12.2891 18.5215ZM12.2891 14.5215C11.7391 14.5215 11.2891 14.0715 11.2891 13.5215C11.2891 12.9715 11.7391 12.5215 12.2891 12.5215C12.8391 12.5215 13.2891 12.9715 13.2891 13.5215C13.2891 14.0715 12.8391 14.5215 12.2891 14.5215ZM16.2891 18.5215C15.7391 18.5215 15.2891 18.0715 15.2891 17.5215C15.2891 16.9715 15.7391 16.5215 16.2891 16.5215C16.8391 16.5215 17.2891 16.9715 17.2891 17.5215C17.2891 18.0715 16.8391 18.5215 16.2891 18.5215ZM16.2891 14.5215C15.7391 14.5215 15.2891 14.0715 15.2891 13.5215C15.2891 12.9715 15.7391 12.5215 16.2891 12.5215C16.8391 12.5215 17.2891 12.9715 17.2891 13.5215C17.2891 14.0715 16.8391 14.5215 16.2891 14.5215ZM19.7891 10.0215H4.78906V8.46143C4.78906 7.01143 5.90907 5.83143 7.32907 5.71143C7.41907 6.17143 7.80906 6.52148 8.28906 6.52148C8.77906 6.52148 9.16906 6.16141 9.25906 5.69141H15.3191C15.4091 6.16141 15.7991 6.52148 16.2891 6.52148C16.7691 6.52148 17.1591 6.17143 17.2491 5.71143C18.6691 5.83143 19.7891 7.02143 19.7891 8.46143V10.0215Z" fill="#D2D2D2"/>
</svg>
