<svg width="20" height="20" viewBox="0 0 20 20" fill="none" xmlns="http://www.w3.org/2000/svg">
<path d="M19.2109 9.27148V19.2715C19.2109 19.4715 19.0909 19.6614 18.9009 19.7314C18.8409 19.7614 18.7709 19.7715 18.7109 19.7715C18.5809 19.7715 18.451 19.7216 18.351 19.6216L16.5409 17.7715H7.71094C5.78094 17.7715 4.21094 16.2015 4.21094 14.2715H11.7109C14.4709 14.2715 16.7109 12.0315 16.7109 9.27148V5.92139C18.1509 6.35139 19.2109 7.69148 19.2109 9.27148ZM15.2109 9.27148V4.27148C15.2109 2.34148 13.6409 0.771484 11.7109 0.771484H3.71094C1.78094 0.771484 0.210938 2.34148 0.210938 4.27148V14.2715C0.210938 14.4715 0.330935 14.6614 0.520935 14.7314C0.580935 14.7614 0.650937 14.7715 0.710938 14.7715C0.840937 14.7715 0.970923 14.7216 1.07092 14.6216L2.88095 12.7715H11.7109C13.6409 12.7715 15.2109 11.2015 15.2109 9.27148Z" fill="#D2D2D2"/>
</svg>
