<svg width="21" height="20" viewBox="0 0 21 20" fill="none" xmlns="http://www.w3.org/2000/svg">
<g clip-path="url(#clip0_2012_6929)">
<path d="M18.9833 8.33357C19.3638 10.2013 19.0926 12.1431 18.2148 13.8351C17.337 15.527 15.9057 16.8669 14.1595 17.6313C12.4134 18.3957 10.4579 18.5384 8.61934 18.0355C6.78073 17.5327 5.17008 16.4147 4.05599 14.8681C2.94189 13.3214 2.39169 11.4396 2.49714 9.53639C2.60259 7.63318 3.35732 5.82364 4.63547 4.40954C5.91361 2.99545 7.63791 2.06226 9.52081 1.76561C11.4037 1.46897 13.3314 1.82679 14.9824 2.7794" stroke="#22C55E" stroke-width="2" stroke-linecap="round" stroke-linejoin="round"/>
<path d="M8.3125 9.16683L10.8125 11.6668L19.1458 3.3335" stroke="#22C55E" stroke-width="2" stroke-linecap="round" stroke-linejoin="round"/>
</g>
<defs>
<clipPath id="clip0_2012_6929">
<rect width="20" height="20" fill="white" transform="translate(0.8125)"/>
</clipPath>
</defs>
</svg>
