<svg width="19" height="19" viewBox="0 0 19 19" fill="none" xmlns="http://www.w3.org/2000/svg">
<path d="M5.49347 17.4774C5.46584 17.4774 5.42899 17.4958 5.40136 17.4958C3.61443 16.6115 2.15909 15.147 1.26562 13.3601C1.26562 13.3324 1.28405 13.2956 1.28405 13.2679C2.40779 13.5995 3.56837 13.8482 4.71975 14.0417C4.92239 15.2023 5.16187 16.3536 5.49347 17.4774Z" fill="#D2D2D2"/>
<path d="M17.7323 13.3693C16.8204 15.2023 15.3006 16.6852 13.4492 17.5787C13.7992 16.4089 14.094 15.2299 14.2874 14.0417C15.448 13.8482 16.5902 13.5995 17.7139 13.2679C17.7047 13.3048 17.7323 13.3416 17.7323 13.3693Z" fill="#D2D2D2"/>
<path d="M17.806 5.31993C16.6454 4.96992 15.4756 4.68438 14.2874 4.48173C14.094 3.29352 13.8084 2.11451 13.4492 0.963135C15.3559 1.87502 16.8941 3.41326 17.806 5.31993Z" fill="#D2D2D2"/>
<path d="M5.49294 1.06291C5.16134 2.18665 4.92186 3.32882 4.72843 4.4894C3.54021 4.67362 2.3612 4.96837 1.19141 5.31839C2.08487 3.46698 3.56784 1.94717 5.40083 1.03528C5.42846 1.03528 5.46531 1.06291 5.49294 1.06291Z" fill="#D2D2D2"/>
<path d="M12.7144 4.2879C10.5775 4.04842 8.42209 4.04842 6.28516 4.2879C6.51543 3.026 6.81018 1.76409 7.22468 0.548241C7.2431 0.474553 7.23389 0.419287 7.2431 0.345599C7.97075 0.17059 8.71684 0.0600586 9.49977 0.0600586C10.2735 0.0600586 11.0288 0.17059 11.7473 0.345599C11.7565 0.419287 11.7565 0.474553 11.7749 0.548241C12.1894 1.7733 12.4841 3.026 12.7144 4.2879Z" fill="#D2D2D2"/>
<path d="M4.51691 12.4876C3.24579 12.2573 1.9931 11.9626 0.777245 11.5481C0.703557 11.5297 0.648291 11.5389 0.574603 11.5297C0.399594 10.802 0.289062 10.0559 0.289062 9.27297C0.289062 8.49924 0.399594 7.74394 0.574603 7.0255C0.648291 7.01629 0.703557 7.01629 0.777245 6.99787C2.00231 6.59259 3.24579 6.28862 4.51691 6.05835C4.28663 8.19528 4.28663 10.3507 4.51691 12.4876Z" fill="#D2D2D2"/>
<path d="M18.7122 9.27297C18.7122 10.0559 18.6017 10.802 18.4267 11.5297C18.353 11.5389 18.2977 11.5297 18.224 11.5481C16.999 11.9534 15.7463 12.2573 14.4844 12.4876C14.7239 10.3507 14.7239 8.19528 14.4844 6.05835C15.7463 6.28862 17.0082 6.58338 18.224 6.99787C18.2977 7.01629 18.353 7.0255 18.4267 7.0255C18.6017 7.75315 18.7122 8.49924 18.7122 9.27297Z" fill="#D2D2D2"/>
<path d="M12.7144 14.2544C12.4841 15.5255 12.1894 16.7782 11.7749 17.9941C11.7565 18.0677 11.7565 18.123 11.7473 18.1967C11.0288 18.3717 10.2735 18.4822 9.49977 18.4822C8.71684 18.4822 7.97075 18.3717 7.2431 18.1967C7.23389 18.123 7.2431 18.0677 7.22468 17.9941C6.81939 16.769 6.51543 15.5255 6.28516 14.2544C7.35363 14.3741 8.42209 14.457 9.49977 14.457C10.5775 14.457 11.6551 14.3741 12.7144 14.2544Z" fill="#D2D2D2"/>
<path d="M12.9672 12.7372C10.6634 13.0279 8.33819 13.0279 6.0344 12.7372C5.74374 10.4334 5.74374 8.10821 6.0344 5.80442C8.33819 5.51376 10.6634 5.51376 12.9672 5.80442C13.2579 8.10821 13.2579 10.4334 12.9672 12.7372Z" fill="#D2D2D2"/>
</svg>
