<svg width="19" height="19" viewBox="0 0 19 19" fill="none" xmlns="http://www.w3.org/2000/svg">
<path d="M5.48956 17.478C5.46193 17.478 5.42509 17.4964 5.39745 17.4964C3.61052 16.6121 2.15518 15.1476 1.26172 13.3607C1.26172 13.333 1.28014 13.2962 1.28014 13.2686C2.40388 13.6002 3.56447 13.8488 4.71584 14.0423C4.91848 15.2029 5.15797 16.3542 5.48956 17.478Z" fill="#D2D2D2"/>
<path d="M17.7284 13.3699C16.8165 15.2029 15.2967 16.6858 13.4453 17.5793C13.7953 16.4095 14.0901 15.2305 14.2835 14.0423C15.4441 13.8488 16.5863 13.6002 17.71 13.2686C17.7008 13.3054 17.7284 13.3422 17.7284 13.3699Z" fill="#D2D2D2"/>
<path d="M17.8021 5.32067C16.6415 4.97065 15.4717 4.68511 14.2835 4.48247C14.0901 3.29425 13.8045 2.11524 13.4453 0.963867C15.352 1.87576 16.8902 3.41399 17.8021 5.32067Z" fill="#D2D2D2"/>
<path d="M5.48903 1.06279C5.15744 2.18653 4.91795 3.32869 4.72452 4.48928C3.5363 4.6735 2.3573 4.96825 1.1875 5.31827C2.08097 3.46686 3.56394 1.94704 5.39692 1.03516C5.42456 1.03516 5.4614 1.06279 5.48903 1.06279Z" fill="#D2D2D2"/>
<path d="M12.7105 4.28839C10.5736 4.04891 8.41818 4.04891 6.28125 4.28839C6.51152 3.02649 6.80628 1.76458 7.22077 0.548729C7.23919 0.475041 7.22998 0.419775 7.23919 0.346088C7.96684 0.171079 8.71293 0.0605469 9.49587 0.0605469C10.2696 0.0605469 11.0249 0.171079 11.7434 0.346088C11.7526 0.419775 11.7526 0.475041 11.771 0.548729C12.1855 1.77379 12.4802 3.02649 12.7105 4.28839Z" fill="#D2D2D2"/>
<path d="M4.513 12.4878C3.24188 12.2576 1.98919 11.9628 0.773339 11.5483C0.699651 11.5299 0.644385 11.5391 0.570697 11.5299C0.395688 10.8022 0.285156 10.0561 0.285156 9.27321C0.285156 8.49949 0.395688 7.74419 0.570697 7.02575C0.644385 7.01654 0.699651 7.01654 0.773339 6.99812C1.9984 6.59283 3.24188 6.28887 4.513 6.05859C4.28273 8.19553 4.28273 10.3509 4.513 12.4878Z" fill="#D2D2D2"/>
<path d="M18.7083 9.27321C18.7083 10.0561 18.5978 10.8022 18.4228 11.5299C18.3491 11.5391 18.2938 11.5299 18.2201 11.5483C16.9951 11.9536 15.7424 12.2576 14.4805 12.4878C14.72 10.3509 14.72 8.19553 14.4805 6.05859C15.7424 6.28887 17.0043 6.58362 18.2201 6.99812C18.2938 7.01654 18.3491 7.02575 18.4228 7.02575C18.5978 7.7534 18.7083 8.49949 18.7083 9.27321Z" fill="#D2D2D2"/>
<path d="M12.7105 14.2549C12.4802 15.526 12.1855 16.7787 11.771 17.9945C11.7526 18.0682 11.7526 18.1235 11.7434 18.1972C11.0249 18.3722 10.2696 18.4827 9.49587 18.4827C8.71293 18.4827 7.96684 18.3722 7.23919 18.1972C7.22998 18.1235 7.23919 18.0682 7.22077 17.9945C6.81549 16.7695 6.51152 15.526 6.28125 14.2549C7.34973 14.3746 8.41818 14.4575 9.49587 14.4575C10.5736 14.4575 11.6512 14.3746 12.7105 14.2549Z" fill="#D2D2D2"/>
<path d="M12.9633 12.7377C10.6595 13.0284 8.33429 13.0284 6.0305 12.7377C5.73983 10.4339 5.73983 8.1087 6.0305 5.80491C8.33429 5.51425 10.6595 5.51425 12.9633 5.80491C13.254 8.1087 13.254 10.4339 12.9633 12.7377Z" fill="#D2D2D2"/>
</svg>
