<svg width="22" height="21" viewBox="0 0 22 21" fill="none" xmlns="http://www.w3.org/2000/svg">
<path d="M19.935 2.89357C18.5861 1.25607 16.709 0.354004 14.6485 0.354004C13.461 0.354004 12.3121 0.632154 11.286 1.16132C10.261 0.632154 9.11105 0.354004 7.92355 0.354004C5.86314 0.354004 3.98604 1.25607 2.63708 2.89357C1.17562 4.66753 0.569391 7.08938 1.01418 9.37271C2.0496 14.68 7.42252 18.3685 9.68502 19.7081C10.1788 19.9987 10.7319 20.1457 11.285 20.1457C11.8381 20.1457 12.3923 19.9988 12.8861 19.7071C15.1486 18.3686 20.5215 14.68 21.5569 9.37271C22.0027 7.08938 21.3965 4.66753 19.935 2.89357Z" fill="#D2D2D2"/>
</svg>
