<svg width="31" height="29" viewBox="0 0 31 29" fill="none" xmlns="http://www.w3.org/2000/svg">
<path d="M8.69954 9.42839H11.0521V16.6546C11.0521 17.466 10.8583 18.1759 10.4708 18.7844C10.0868 19.393 9.54894 19.8675 8.8571 20.2079C8.16527 20.5448 7.35934 20.7132 6.43931 20.7132C5.51566 20.7132 4.70792 20.5448 4.01609 20.2079C3.32425 19.8675 2.78636 19.393 2.40241 18.7844C2.01847 18.1759 1.82649 17.466 1.82649 16.6546V9.42839H4.17908V16.4536C4.17908 16.8774 4.27145 17.2541 4.45618 17.5837C4.64453 17.9133 4.90895 18.1723 5.24943 18.3606C5.58991 18.549 5.98654 18.6432 6.43931 18.6432C6.8957 18.6432 7.29233 18.549 7.62919 18.3606C7.96967 18.1723 8.23228 17.9133 8.41701 17.5837C8.60536 17.2541 8.69954 16.8774 8.69954 16.4536V9.42839ZM12.9877 20.5557V9.42839H17.3778C18.2217 9.42839 18.9407 9.58958 19.5348 9.91195C20.1288 10.2307 20.5816 10.6744 20.8931 11.2431C21.2082 11.8081 21.3658 12.4601 21.3658 13.1991C21.3658 13.938 21.2064 14.59 20.8877 15.155C20.5689 15.7201 20.1071 16.1602 19.5022 16.4753C18.9009 16.7904 18.1728 16.948 17.318 16.948H14.5199V15.0627H16.9377C17.3905 15.0627 17.7635 14.9848 18.0569 14.829C18.354 14.6697 18.5749 14.4505 18.7198 14.1716C18.8683 13.8891 18.9426 13.5649 18.9426 13.1991C18.9426 12.8296 18.8683 12.5072 18.7198 12.2319C18.5749 11.953 18.354 11.7375 18.0569 11.5854C17.7599 11.4296 17.3832 11.3518 16.9268 11.3518H15.3403V20.5557H12.9877ZM25.2465 9.42839V20.5557H22.8939V9.42839H25.2465Z" fill="black"/>
</svg>
