<svg width="25" height="25" viewBox="0 0 25 25" fill="none" xmlns="http://www.w3.org/2000/svg">
<path d="M20.25 6.55566H4.25C3.14543 6.55566 2.25 7.45109 2.25 8.55566V16.5557C2.25 17.6602 3.14543 18.5557 4.25 18.5557H20.25C21.3546 18.5557 22.25 17.6602 22.25 16.5557V8.55566C22.25 7.45109 21.3546 6.55566 20.25 6.55566Z" stroke="black" stroke-width="2" stroke-linecap="round" stroke-linejoin="round"/>
<path d="M12.25 14.5557C13.3546 14.5557 14.25 13.6602 14.25 12.5557C14.25 11.4511 13.3546 10.5557 12.25 10.5557C11.1454 10.5557 10.25 11.4511 10.25 12.5557C10.25 13.6602 11.1454 14.5557 12.25 14.5557Z" stroke="black" stroke-width="2" stroke-linecap="round" stroke-linejoin="round"/>
<path d="M6.25 12.5557H6.26M18.25 12.5557H18.26" stroke="black" stroke-width="2" stroke-linecap="round" stroke-linejoin="round"/>
</svg>
