<svg width="24" height="25" viewBox="0 0 24 25" fill="none" xmlns="http://www.w3.org/2000/svg">
<path d="M14 10.0407C14 11.1407 13.1 12.0407 12 12.0407C10.9 12.0407 10 11.1407 10 10.0407C10 8.94071 10.9 8.04071 12 8.04071C13.1 8.04071 14 8.94071 14 10.0407ZM19.5 10.0407C19.5 16.1207 14.83 19.9307 12.83 21.2807C12.58 21.4607 12.29 21.5407 12 21.5407C11.71 21.5407 11.42 21.4607 11.16 21.2807C9.16 19.9307 4.5 16.1307 4.5 10.0407C4.5 5.76071 7.72 2.54071 12 2.54071C16.27 2.54071 19.5 5.76071 19.5 10.0407ZM16 10.0407C16 7.83071 14.21 6.04071 12 6.04071C9.79 6.04071 8 7.83071 8 10.0407C8 12.2507 9.79 14.0407 12 14.0407C14.21 14.0407 16 12.2507 16 10.0407Z" fill="#034B3B"/>
</svg>
