<svg width="17" height="12" viewBox="0 0 17 12" fill="none" xmlns="http://www.w3.org/2000/svg">
<path fill-rule="evenodd" clip-rule="evenodd" d="M0.5 1.31805C0.5 0.811783 0.910416 0.401367 1.41668 0.401367H16.0836C16.5898 0.401367 17.0002 0.811783 17.0002 1.31805C17.0002 1.82431 16.5898 2.23473 16.0836 2.23473H1.41668C0.910416 2.23473 0.5 1.82431 0.5 1.31805ZM3.25004 5.90145C3.25004 5.39517 3.66046 4.98477 4.16672 4.98477H13.3335C13.8398 4.98477 14.2502 5.39517 14.2502 5.90145C14.2502 6.40773 13.8398 6.81813 13.3335 6.81813H4.16672C3.66046 6.81813 3.25004 6.40773 3.25004 5.90145ZM6.00008 10.4848C6.00008 9.97857 6.4105 9.56817 6.91676 9.56817H10.5835C11.0898 9.56817 11.5002 9.97857 11.5002 10.4848C11.5002 10.9911 11.0898 11.4015 10.5835 11.4015H6.91676C6.4105 11.4015 6.00008 10.9911 6.00008 10.4848Z" fill="black"/>
</svg>
