<svg width="25" height="25" viewBox="0 0 25 25" fill="none" xmlns="http://www.w3.org/2000/svg">
<path d="M22.2148 11.2712V21.2712C22.2148 21.4712 22.0948 21.6612 21.9048 21.7312C21.8448 21.7612 21.7748 21.7712 21.7148 21.7712C21.5848 21.7712 21.4549 21.7213 21.3549 21.6213L19.5448 19.7712H10.7148C8.78484 19.7712 7.21484 18.2012 7.21484 16.2712H14.7148C17.4748 16.2712 19.7148 14.0312 19.7148 11.2712V7.92114C21.1548 8.35114 22.2148 9.69124 22.2148 11.2712ZM18.2148 11.2712V6.27124C18.2148 4.34124 16.6448 2.77124 14.7148 2.77124H6.71484C4.78484 2.77124 3.21484 4.34124 3.21484 6.27124V16.2712C3.21484 16.4712 3.33484 16.6612 3.52484 16.7312C3.58484 16.7612 3.65484 16.7712 3.71484 16.7712C3.84484 16.7712 3.97483 16.7213 4.07483 16.6213L5.88486 14.7712H14.7148C16.6448 14.7712 18.2148 13.2012 18.2148 11.2712Z" fill="#D2D2D2"/>
</svg>
