<svg width="22" height="23" viewBox="0 0 22 23" fill="none" xmlns="http://www.w3.org/2000/svg">
<path d="M7.46904 19.6901C7.53813 20.0537 7.65998 20.3873 7.83551 20.6912C8.01683 21.0047 8.25419 21.2858 8.5474 21.534C8.8406 21.7819 9.16047 21.9686 9.50535 22.0936C9.85096 22.2185 10.2187 22.2812 10.6071 22.2812C10.9957 22.2812 11.3632 22.2185 11.709 22.0936C12.0541 21.9688 12.3736 21.7819 12.6668 21.534C12.9602 21.2858 13.1975 21.0045 13.3789 20.6912C13.5598 20.3779 13.6839 20.033 13.7513 19.6566C13.7841 19.4725 13.6616 19.2963 13.4775 19.2633C13.4717 19.2624 13.4179 19.2571 13.4179 19.2567H7.79652C7.60848 19.2567 7.45617 19.409 7.45617 19.5967C7.45635 19.6292 7.46052 19.6604 7.46904 19.6901ZM8.81631 1.24545C8.54051 1.31744 8.27269 1.40484 8.01302 1.50729C7.6306 1.65815 7.26324 1.8402 6.91128 2.05253C6.8975 2.06106 6.88408 2.07012 6.87084 2.07937C6.53339 2.28681 6.21951 2.51473 5.92993 2.76333C5.62712 3.02335 5.34479 3.31075 5.08313 3.62535L5.08096 3.62771H5.0806C4.82492 3.93742 4.59609 4.26797 4.39391 4.61811C4.191 4.97007 4.01747 5.33653 3.87404 5.71622L3.87332 5.71604C3.72499 6.10662 3.61402 6.50699 3.54076 6.91678C3.46714 7.32857 3.4307 7.7507 3.4307 8.18316C3.4307 9.03793 3.4307 9.49904 3.43033 9.55507C3.42852 9.99334 3.42616 10.4216 3.4229 10.8398V10.8441C3.42145 11.2218 3.39661 11.6019 3.34964 11.9827C3.30322 12.3593 3.23522 12.723 3.14746 13.0732L3.14674 13.073C3.05861 13.4182 2.93948 13.7502 2.79006 14.069C2.63666 14.3972 2.45008 14.7181 2.23049 15.032L2.2294 15.0313C2.01271 15.339 1.74145 15.6429 1.4156 15.9428C1.07924 16.2527 0.688478 16.5562 0.244045 16.8536C-0.0109005 17.0244 -0.0792618 17.3697 0.0917301 17.6248C0.198713 17.7845 0.374418 17.871 0.55357 17.8712V17.873H5.58033H10.6071H15.6342H20.661C20.9691 17.873 21.2188 17.6234 21.2188 17.3155C21.2188 17.1129 21.1109 16.9358 20.9495 16.838C20.4978 16.5323 20.1099 16.2299 19.7861 15.9299C19.4639 15.6315 19.194 15.3261 18.977 15.0133C18.9705 15.0041 18.9639 14.9952 18.9571 14.9865C18.7473 14.6793 18.5677 14.3664 18.4191 14.0485C18.2678 13.7252 18.1465 13.3917 18.0557 13.0481C18.0539 13.0409 18.0519 13.0338 18.0497 13.0267C17.9636 12.6931 17.8979 12.3415 17.8524 11.9729C17.8067 11.6017 17.7839 11.2184 17.7839 10.8238V8.18316C17.7839 7.75886 17.7458 7.33619 17.6698 6.91624C17.5938 6.49683 17.482 6.09411 17.3345 5.70951C17.1878 5.32492 17.012 4.95629 16.8078 4.60415C16.6049 4.25437 16.3731 3.92182 16.1137 3.60758L16.1106 3.60396L16.1113 3.60323C15.8524 3.29371 15.5682 3.00631 15.2589 2.74212C14.9537 2.48155 14.6242 2.24474 14.2706 2.03241C13.9125 1.81862 13.5426 1.63911 13.1595 1.49369C12.8931 1.39251 12.6193 1.30765 12.3382 1.23892C12.2423 0.90329 12.0777 0.631664 11.8447 0.423683C11.523 0.136463 11.0989 -0.00442717 10.5726 0.000105977C10.0513 0.00463912 9.63083 0.148975 9.31206 0.433656C9.07832 0.642362 8.91295 0.912901 8.81631 1.24545ZM8.41811 2.54411C8.72655 2.42262 9.04115 2.32688 9.36156 2.25816C9.60835 2.22624 9.81161 2.03096 9.84316 1.77275C9.87326 1.52959 9.94308 1.35914 10.0524 1.26159C10.1621 1.16349 10.3386 1.11345 10.5813 1.11127C10.8225 1.1091 10.9968 1.15588 11.1039 1.25162C11.2127 1.34881 11.2816 1.52089 11.3106 1.7684H11.3112C11.338 2.00466 11.5155 2.20612 11.7616 2.25199C12.1089 2.31781 12.4438 2.4121 12.7674 2.53504C13.0906 2.65762 13.4012 2.8083 13.7 2.98654C13.9976 3.16515 14.2761 3.3657 14.5357 3.58728C14.795 3.80867 15.0357 4.05256 15.2574 4.31766L15.2581 4.31711C15.4747 4.57985 15.6705 4.86163 15.8446 5.16191C16.0159 5.45729 16.1657 5.77225 16.293 6.10607C16.4203 6.4379 16.5146 6.77372 16.5759 7.11243C16.6375 7.45224 16.6682 7.80945 16.6682 8.18334V10.8242C16.6682 11.2615 16.6941 11.6898 16.7456 12.1085C16.7953 12.5118 16.8712 12.9114 16.9733 13.3062C16.9751 13.3147 16.9771 13.3234 16.9793 13.3319C17.0858 13.7343 17.2303 14.1301 17.4125 14.5194C17.5884 14.8953 17.7978 15.2609 18.0401 15.6157C18.047 15.6273 18.0542 15.6387 18.062 15.65C18.3173 16.0173 18.6408 16.3824 19.0325 16.745L19.0466 16.7579H15.6342H10.6071H5.58033H2.17373C2.55651 16.405 2.87855 16.0431 3.13984 15.6719L3.13912 15.6712L3.13984 15.6697C3.3966 15.3027 3.61583 14.9259 3.79643 14.5399C3.98102 14.1461 4.12445 13.7486 4.22709 13.3477L4.22672 13.3475L4.22709 13.3455C4.32772 12.9462 4.40461 12.5366 4.45628 12.1178C4.50542 11.7172 4.53172 11.2945 4.53389 10.8499V10.8487C4.53716 10.4356 4.53951 10.0044 4.54133 9.55525C4.54459 8.72406 4.54586 8.27038 4.54586 8.18334C4.54586 7.81634 4.57669 7.45949 4.6387 7.11316C4.70035 6.76809 4.79247 6.43445 4.9145 6.11278L4.91377 6.1126L4.9145 6.11061C5.0398 5.77896 5.18722 5.46563 5.35676 5.1717C5.52612 4.8785 5.72014 4.59889 5.939 4.33361L5.93864 4.33343C6.15569 4.07269 6.39377 3.83116 6.65289 3.60867C6.90403 3.39326 7.16931 3.1996 7.44946 3.02716C7.46179 3.02081 7.4743 3.0141 7.48627 3.00667C7.78854 2.82462 8.09897 2.66995 8.41811 2.54411Z" fill="black"/>
<circle cx="16.9351" cy="3.35406" r="2.52887" fill="#4CAF50" stroke="white"/>
</svg>
