<svg width="16" height="16" viewBox="0 0 16 16" fill="none" xmlns="http://www.w3.org/2000/svg">
<path d="M7.94253 4.4563L11.7825 8.0563L6.51589 13C6.26923 13.2313 5.95587 13.3812 5.61587 13.4375L2.45588 13.9312C2.41588 13.9375 2.38255 13.9375 2.34255 13.9375C2.16922 13.9375 1.99587 13.8687 1.86921 13.75C1.71587 13.6062 1.64255 13.4 1.67589 13.2L2.20254 10.2375C2.26254 9.9188 2.42255 9.62499 2.66921 9.39374L7.94253 4.4563ZM13.5359 2.81247C13.0225 2.32497 12.3425 2.0625 11.6159 2.0625C10.8892 2.0625 10.2092 2.32497 9.69587 2.81247L8.88923 3.5687L12.7292 7.1687L13.5359 6.41248C14.0559 5.93123 14.3359 5.2938 14.3359 4.61255C14.3359 3.9313 14.0559 3.29372 13.5359 2.81247Z" fill="#41416E"/>
</svg>
