<svg width="26" height="28" viewBox="0 0 26 28" fill="none" xmlns="http://www.w3.org/2000/svg">
<path d="M16.2487 3.3125H9.7487C5.87036 3.3125 2.70703 6.5975 2.70703 10.625V17.375C2.70703 21.4025 5.87036 24.6875 9.7487 24.6875H16.2487C20.127 24.6875 23.2904 21.4025 23.2904 17.375V10.625C23.2904 6.5975 20.127 3.3125 16.2487 3.3125ZM17.332 15.125H14.082V18.5C14.082 19.1188 13.5945 19.625 12.9987 19.625C12.4029 19.625 11.9154 19.1188 11.9154 18.5V15.125H8.66536C8.06953 15.125 7.58203 14.6188 7.58203 14C7.58203 13.3812 8.06953 12.875 8.66536 12.875H11.9154V9.5C11.9154 8.88125 12.4029 8.375 12.9987 8.375C13.5945 8.375 14.082 8.88125 14.082 9.5V12.875H17.332C17.9279 12.875 18.4154 13.3812 18.4154 14C18.4154 14.6188 17.9279 15.125 17.332 15.125Z" fill="white"/>
</svg>
