<svg width="26" height="26" viewBox="0 0 26 26" fill="none" xmlns="http://www.w3.org/2000/svg">
<path d="M8.08512 8.53315C8.08512 5.63059 10.4465 3.26917 13.3491 3.26917C16.2517 3.26917 18.6131 5.63059 18.6131 8.53315C18.6131 11.4357 16.2517 13.7971 13.3491 13.7971C10.4465 13.7971 8.08512 11.4357 8.08512 8.53315ZM17.6835 14.9247C17.095 14.7752 16.4549 14.8595 15.9253 15.1543C14.3272 16.0428 12.371 16.0428 10.7729 15.1543C10.2444 14.8605 9.60325 14.7773 9.01474 14.9247C6.91756 15.4543 5.45312 17.3577 5.45312 19.5528V20.6172C5.45312 21.2889 5.63208 21.9457 5.97213 22.5185C6.24902 22.9838 6.76809 23.2734 7.32502 23.2734H19.3722C19.9291 23.2734 20.4481 22.9849 20.725 22.5174C21.065 21.9458 21.2441 21.2889 21.2441 20.6172V19.5528C21.2451 17.3577 19.7807 15.4543 17.6835 14.9247Z" fill="#D2D2D2"/>
</svg>
