<svg width="20" height="20" viewBox="0 0 20 20" fill="none" xmlns="http://www.w3.org/2000/svg">
<path d="M16.9596 5.59163C16.9596 6.97497 16.043 8.14999 14.7846 8.53333C14.9263 8.07499 15.0013 7.58333 15.0013 7.08333C15.0013 5.25833 14.018 3.65841 12.5596 2.79175C12.9596 2.60841 13.4013 2.5 13.8763 2.5C15.5763 2.5 16.9596 3.8833 16.9596 5.59163ZM16.3346 9.41671C15.9846 9.31671 15.6013 9.36663 15.2929 9.54163C14.9263 9.74163 14.5347 9.85842 14.1347 9.88342C13.968 10.1334 13.7763 10.375 13.5513 10.5916C15.1596 11.1166 16.3346 12.5083 16.6013 14.1667H17.1763C17.5596 14.1667 17.9096 13.9668 18.0846 13.6418C18.2513 13.3334 18.3346 12.9833 18.3346 12.6333V12.0416C18.3346 10.8 17.5096 9.72504 16.3346 9.41671ZM7.44296 2.79175C7.04296 2.60841 6.60128 2.5 6.12628 2.5C4.42628 2.5 3.04299 3.8833 3.04299 5.59163C3.04299 6.97497 3.95964 8.14999 5.21798 8.53333C5.07631 8.07499 5.0013 7.58333 5.0013 7.08333C5.0013 5.25833 5.98463 3.65841 7.44296 2.79175ZM6.45129 10.5916C6.22629 10.375 6.03462 10.1334 5.86795 9.88342C5.46795 9.85842 5.07632 9.74163 4.70966 9.54163C4.40132 9.36663 4.01799 9.31671 3.66799 9.41671C2.49299 9.72504 1.66797 10.8 1.66797 12.0416V12.6333C1.66797 12.9833 1.75129 13.3334 1.91796 13.6418C2.09296 13.9668 2.44297 14.1667 2.81797 14.1667H3.40132C3.66798 12.5083 4.84296 11.1166 6.45129 10.5916ZM12.9847 11.7251C12.843 11.6917 12.693 11.6667 12.543 11.6667C12.2596 11.6667 11.968 11.7417 11.718 11.8833C11.1846 12.175 10.593 12.325 10.0013 12.325C9.40964 12.325 8.81797 12.175 8.28464 11.8833C8.03464 11.7417 7.74298 11.6667 7.45965 11.6667C7.30965 11.6667 7.15962 11.6917 7.01795 11.7251C5.58462 12.1084 4.58464 13.4166 4.58464 14.9166V15.6417C4.58464 16.0667 4.69296 16.4916 4.89296 16.8583C5.1013 17.2583 5.51796 17.5 5.98463 17.5H14.018C14.4846 17.5 14.9013 17.2583 15.1096 16.8583C15.3096 16.4916 15.418 16.0667 15.418 15.6417V14.9166C15.418 13.4166 14.418 12.1084 12.9847 11.7251ZM13.7513 7.08333C13.7513 5.0125 12.0721 3.33333 10.0013 3.33333C7.93047 3.33333 6.2513 5.0125 6.2513 7.08333C6.2513 9.15417 7.93047 10.8333 10.0013 10.8333C12.0721 10.8333 13.7513 9.15417 13.7513 7.08333Z" fill="#555555"/>
</svg>
