<svg width="17" height="21" viewBox="0 0 17 21" fill="none" xmlns="http://www.w3.org/2000/svg">
<path d="M3.08121 5.53254C3.08121 2.62998 5.44264 0.268555 8.3452 0.268555C11.2478 0.268555 13.6092 2.62998 13.6092 5.53254C13.6092 8.43511 11.2478 10.7965 8.3452 10.7965C5.44264 10.7965 3.08121 8.43511 3.08121 5.53254ZM12.6796 11.9241C12.0911 11.7746 11.451 11.8589 10.9214 12.1537C9.32327 13.0422 7.36713 13.0422 5.76898 12.1537C5.24048 11.8599 4.59934 11.7767 4.01083 11.9241C1.91366 12.4537 0.449219 14.3571 0.449219 16.5522V17.6166C0.449219 18.2883 0.628174 18.9451 0.968228 19.5178C1.24511 19.9832 1.76418 20.2727 2.32111 20.2727H14.3683C14.9252 20.2727 15.4442 19.9843 15.7211 19.5168C16.0611 18.9451 16.2402 18.2883 16.2402 17.6166V16.5522C16.2412 14.3571 14.7767 12.4537 12.6796 11.9241Z" fill="#D2D2D2"/>
</svg>
